<mxfile host="app.diagrams.net" agent="Mozilla/5.0 (Windows NT 10.0; Win64; x64) AppleWebKit/537.36 (KHTML, like Gecko) Chrome/128.0.0.0 Safari/537.36 Edg/128.0.0.0" version="24.7.14">
  <diagram id="C5RBs43oDa-KdzZeNtuy" name="Page-1">
    <mxGraphModel dx="1146" dy="1896" grid="1" gridSize="10" guides="1" tooltips="1" connect="1" arrows="1" fold="1" page="1" pageScale="1" pageWidth="827" pageHeight="1169" math="0" shadow="0">
      <root>
        <mxCell id="WIyWlLk6GJQsqaUBKTNV-0" />
        <mxCell id="WIyWlLk6GJQsqaUBKTNV-1" parent="WIyWlLk6GJQsqaUBKTNV-0" />
        <mxCell id="QFxv0Di5CS341wBC3GDb-99" value="" style="verticalLabelPosition=bottom;verticalAlign=top;html=1;shape=card;whiteSpace=wrap;size=20;arcSize=12;" vertex="1" parent="WIyWlLk6GJQsqaUBKTNV-1">
          <mxGeometry x="1110" y="-20" width="780" height="950" as="geometry" />
        </mxCell>
        <mxCell id="QFxv0Di5CS341wBC3GDb-48" value="" style="verticalLabelPosition=bottom;verticalAlign=top;html=1;shape=card;whiteSpace=wrap;size=20;arcSize=12;" vertex="1" parent="WIyWlLk6GJQsqaUBKTNV-1">
          <mxGeometry x="460" y="-20" width="620" height="950" as="geometry" />
        </mxCell>
        <mxCell id="QFxv0Di5CS341wBC3GDb-46" value="" style="verticalLabelPosition=bottom;verticalAlign=top;html=1;shape=card;whiteSpace=wrap;size=20;arcSize=12;" vertex="1" parent="WIyWlLk6GJQsqaUBKTNV-1">
          <mxGeometry x="20" y="-20" width="430" height="380" as="geometry" />
        </mxCell>
        <mxCell id="WIyWlLk6GJQsqaUBKTNV-2" value="" style="rounded=0;html=1;jettySize=auto;orthogonalLoop=1;fontSize=11;endArrow=block;endFill=0;endSize=8;strokeWidth=1;shadow=0;labelBackgroundColor=none;edgeStyle=orthogonalEdgeStyle;" parent="WIyWlLk6GJQsqaUBKTNV-1" source="WIyWlLk6GJQsqaUBKTNV-3" target="WIyWlLk6GJQsqaUBKTNV-7" edge="1">
          <mxGeometry relative="1" as="geometry">
            <mxPoint x="220" y="160" as="targetPoint" />
          </mxGeometry>
        </mxCell>
        <mxCell id="WIyWlLk6GJQsqaUBKTNV-3" value="開課" style="rounded=1;whiteSpace=wrap;html=1;fontSize=12;glass=0;strokeWidth=1;shadow=0;" parent="WIyWlLk6GJQsqaUBKTNV-1" vertex="1">
          <mxGeometry x="220" y="40" width="120" height="40" as="geometry" />
        </mxCell>
        <mxCell id="QFxv0Di5CS341wBC3GDb-2" value="" style="edgeStyle=orthogonalEdgeStyle;rounded=0;orthogonalLoop=1;jettySize=auto;html=1;" edge="1" parent="WIyWlLk6GJQsqaUBKTNV-1" source="WIyWlLk6GJQsqaUBKTNV-7" target="QFxv0Di5CS341wBC3GDb-1">
          <mxGeometry relative="1" as="geometry" />
        </mxCell>
        <mxCell id="WIyWlLk6GJQsqaUBKTNV-7" value="輸入報名起訖日、受訓類型等資訊" style="rounded=1;whiteSpace=wrap;html=1;fontSize=12;glass=0;strokeWidth=1;shadow=0;" parent="WIyWlLk6GJQsqaUBKTNV-1" vertex="1">
          <mxGeometry x="165" y="120" width="230" height="40" as="geometry" />
        </mxCell>
        <mxCell id="QFxv0Di5CS341wBC3GDb-6" value="" style="edgeStyle=orthogonalEdgeStyle;rounded=0;orthogonalLoop=1;jettySize=auto;html=1;" edge="1" parent="WIyWlLk6GJQsqaUBKTNV-1" source="QFxv0Di5CS341wBC3GDb-1" target="QFxv0Di5CS341wBC3GDb-5">
          <mxGeometry relative="1" as="geometry" />
        </mxCell>
        <mxCell id="QFxv0Di5CS341wBC3GDb-1" value="存檔確認" style="rounded=1;whiteSpace=wrap;html=1;fontSize=12;glass=0;strokeWidth=1;shadow=0;" vertex="1" parent="WIyWlLk6GJQsqaUBKTNV-1">
          <mxGeometry x="165" y="200" width="230" height="40" as="geometry" />
        </mxCell>
        <mxCell id="QFxv0Di5CS341wBC3GDb-8" value="" style="edgeStyle=orthogonalEdgeStyle;rounded=0;orthogonalLoop=1;jettySize=auto;html=1;entryX=0;entryY=0.5;entryDx=0;entryDy=0;" edge="1" parent="WIyWlLk6GJQsqaUBKTNV-1" source="QFxv0Di5CS341wBC3GDb-5" target="QFxv0Di5CS341wBC3GDb-9">
          <mxGeometry relative="1" as="geometry">
            <mxPoint x="280" y="360" as="targetPoint" />
          </mxGeometry>
        </mxCell>
        <mxCell id="QFxv0Di5CS341wBC3GDb-5" value="系統自動送簽至現場各單位" style="rounded=1;whiteSpace=wrap;html=1;fontSize=12;glass=0;strokeWidth=1;shadow=0;" vertex="1" parent="WIyWlLk6GJQsqaUBKTNV-1">
          <mxGeometry x="165" y="280" width="230" height="40" as="geometry" />
        </mxCell>
        <mxCell id="QFxv0Di5CS341wBC3GDb-13" value="" style="edgeStyle=orthogonalEdgeStyle;rounded=0;orthogonalLoop=1;jettySize=auto;html=1;" edge="1" parent="WIyWlLk6GJQsqaUBKTNV-1" source="QFxv0Di5CS341wBC3GDb-9">
          <mxGeometry relative="1" as="geometry">
            <mxPoint x="640" y="120" as="targetPoint" />
          </mxGeometry>
        </mxCell>
        <mxCell id="QFxv0Di5CS341wBC3GDb-9" value="課長ERP簽核區顯示「職安證照開課報名」，點選進入畫面" style="rounded=1;whiteSpace=wrap;html=1;fontSize=12;glass=0;strokeWidth=1;shadow=0;" vertex="1" parent="WIyWlLk6GJQsqaUBKTNV-1">
          <mxGeometry x="480" y="40" width="320" height="40" as="geometry" />
        </mxCell>
        <mxCell id="QFxv0Di5CS341wBC3GDb-15" value="" style="edgeStyle=orthogonalEdgeStyle;rounded=0;orthogonalLoop=1;jettySize=auto;html=1;" edge="1" parent="WIyWlLk6GJQsqaUBKTNV-1" target="QFxv0Di5CS341wBC3GDb-14">
          <mxGeometry relative="1" as="geometry">
            <mxPoint x="680" y="160" as="sourcePoint" />
          </mxGeometry>
        </mxCell>
        <mxCell id="QFxv0Di5CS341wBC3GDb-17" value="" style="edgeStyle=orthogonalEdgeStyle;rounded=0;orthogonalLoop=1;jettySize=auto;html=1;" edge="1" parent="WIyWlLk6GJQsqaUBKTNV-1" target="QFxv0Di5CS341wBC3GDb-16">
          <mxGeometry relative="1" as="geometry">
            <mxPoint x="640" y="200" as="sourcePoint" />
          </mxGeometry>
        </mxCell>
        <mxCell id="QFxv0Di5CS341wBC3GDb-22" value="" style="edgeStyle=orthogonalEdgeStyle;rounded=0;orthogonalLoop=1;jettySize=auto;html=1;" edge="1" parent="WIyWlLk6GJQsqaUBKTNV-1" source="QFxv0Di5CS341wBC3GDb-14" target="QFxv0Di5CS341wBC3GDb-21">
          <mxGeometry relative="1" as="geometry" />
        </mxCell>
        <mxCell id="QFxv0Di5CS341wBC3GDb-14" value="指定報名負責人" style="whiteSpace=wrap;html=1;rounded=1;glass=0;strokeWidth=1;shadow=0;" vertex="1" parent="WIyWlLk6GJQsqaUBKTNV-1">
          <mxGeometry x="800" y="140" width="120" height="40" as="geometry" />
        </mxCell>
        <mxCell id="QFxv0Di5CS341wBC3GDb-26" value="" style="edgeStyle=orthogonalEdgeStyle;rounded=0;orthogonalLoop=1;jettySize=auto;html=1;" edge="1" parent="WIyWlLk6GJQsqaUBKTNV-1" source="QFxv0Di5CS341wBC3GDb-16" target="QFxv0Di5CS341wBC3GDb-25">
          <mxGeometry relative="1" as="geometry" />
        </mxCell>
        <mxCell id="QFxv0Di5CS341wBC3GDb-16" value="課長點選&lt;span style=&quot;font-size:12.0pt;mso-bidi-font-size:11.0pt;&lt;br/&gt;font-family:&amp;quot;新細明體&amp;quot;,serif;mso-ascii-font-family:Calibri;mso-ascii-theme-font:&lt;br/&gt;minor-latin;mso-fareast-theme-font:minor-fareast;mso-hansi-font-family:Calibri;&lt;br/&gt;mso-hansi-theme-font:minor-latin;mso-bidi-font-family:&amp;quot;Times New Roman&amp;quot;;&lt;br/&gt;mso-bidi-theme-font:minor-bidi;mso-ansi-language:EN-US;mso-fareast-language:&lt;br/&gt;ZH-TW;mso-bidi-language:AR-SA&quot;&gt;【&lt;/span&gt;&lt;span style=&quot;background-color: initial;&quot;&gt;職安證照開課報名連結&lt;/span&gt;&lt;span style=&quot;font-size:12.0pt;mso-bidi-font-size:11.0pt;&lt;br/&gt;font-family:&amp;quot;新細明體&amp;quot;,serif;mso-ascii-font-family:Calibri;mso-ascii-theme-font:&lt;br/&gt;minor-latin;mso-fareast-theme-font:minor-fareast;mso-hansi-font-family:Calibri;&lt;br/&gt;mso-hansi-theme-font:minor-latin;mso-bidi-font-family:&amp;quot;Times New Roman&amp;quot;;&lt;br/&gt;mso-bidi-theme-font:minor-bidi;mso-ansi-language:EN-US;mso-fareast-language:&lt;br/&gt;ZH-TW;mso-bidi-language:AR-SA&quot;&gt;】&lt;/span&gt;" style="whiteSpace=wrap;html=1;rounded=1;glass=0;strokeWidth=1;shadow=0;" vertex="1" parent="WIyWlLk6GJQsqaUBKTNV-1">
          <mxGeometry x="525" y="240" width="230" height="40" as="geometry" />
        </mxCell>
        <mxCell id="QFxv0Di5CS341wBC3GDb-18" value="部門有負責人" style="rhombus;whiteSpace=wrap;html=1;shadow=0;fontFamily=Helvetica;fontSize=12;align=center;strokeWidth=1;spacing=6;spacingTop=-4;" vertex="1" parent="WIyWlLk6GJQsqaUBKTNV-1">
          <mxGeometry x="590" y="120" width="100" height="80" as="geometry" />
        </mxCell>
        <mxCell id="QFxv0Di5CS341wBC3GDb-19" value="yes" style="text;html=1;align=center;verticalAlign=middle;resizable=0;points=[];autosize=1;strokeColor=none;fillColor=none;" vertex="1" parent="WIyWlLk6GJQsqaUBKTNV-1">
          <mxGeometry x="700" y="128" width="40" height="30" as="geometry" />
        </mxCell>
        <mxCell id="QFxv0Di5CS341wBC3GDb-20" value="no" style="text;html=1;align=center;verticalAlign=middle;resizable=0;points=[];autosize=1;strokeColor=none;fillColor=none;" vertex="1" parent="WIyWlLk6GJQsqaUBKTNV-1">
          <mxGeometry x="630" y="198" width="40" height="30" as="geometry" />
        </mxCell>
        <mxCell id="QFxv0Di5CS341wBC3GDb-24" value="" style="edgeStyle=orthogonalEdgeStyle;rounded=0;orthogonalLoop=1;jettySize=auto;html=1;" edge="1" parent="WIyWlLk6GJQsqaUBKTNV-1" source="QFxv0Di5CS341wBC3GDb-21" target="QFxv0Di5CS341wBC3GDb-23">
          <mxGeometry relative="1" as="geometry" />
        </mxCell>
        <mxCell id="QFxv0Di5CS341wBC3GDb-21" value="系統加簽至負責人" style="whiteSpace=wrap;html=1;rounded=1;glass=0;strokeWidth=1;shadow=0;" vertex="1" parent="WIyWlLk6GJQsqaUBKTNV-1">
          <mxGeometry x="800" y="240" width="120" height="40" as="geometry" />
        </mxCell>
        <mxCell id="QFxv0Di5CS341wBC3GDb-28" style="edgeStyle=orthogonalEdgeStyle;rounded=0;orthogonalLoop=1;jettySize=auto;html=1;entryX=0.5;entryY=0;entryDx=0;entryDy=0;" edge="1" parent="WIyWlLk6GJQsqaUBKTNV-1" source="QFxv0Di5CS341wBC3GDb-23" target="QFxv0Di5CS341wBC3GDb-27">
          <mxGeometry relative="1" as="geometry" />
        </mxCell>
        <mxCell id="QFxv0Di5CS341wBC3GDb-23" value="負責人ERP簽核區顯示「職安證照開課報名」，點選進入畫面" style="whiteSpace=wrap;html=1;rounded=1;glass=0;strokeWidth=1;shadow=0;" vertex="1" parent="WIyWlLk6GJQsqaUBKTNV-1">
          <mxGeometry x="690" y="320" width="340" height="40" as="geometry" />
        </mxCell>
        <mxCell id="QFxv0Di5CS341wBC3GDb-32" value="" style="edgeStyle=orthogonalEdgeStyle;rounded=0;orthogonalLoop=1;jettySize=auto;html=1;" edge="1" parent="WIyWlLk6GJQsqaUBKTNV-1" source="QFxv0Di5CS341wBC3GDb-25" target="QFxv0Di5CS341wBC3GDb-31">
          <mxGeometry relative="1" as="geometry" />
        </mxCell>
        <mxCell id="QFxv0Di5CS341wBC3GDb-25" value="跳轉至ERP 職安證照開課報名" style="whiteSpace=wrap;html=1;rounded=1;glass=0;strokeWidth=1;shadow=0;" vertex="1" parent="WIyWlLk6GJQsqaUBKTNV-1">
          <mxGeometry x="525" y="480" width="230" height="40" as="geometry" />
        </mxCell>
        <mxCell id="QFxv0Di5CS341wBC3GDb-30" value="" style="edgeStyle=orthogonalEdgeStyle;rounded=0;orthogonalLoop=1;jettySize=auto;html=1;entryX=1;entryY=0.25;entryDx=0;entryDy=0;" edge="1" parent="WIyWlLk6GJQsqaUBKTNV-1" source="QFxv0Di5CS341wBC3GDb-27" target="QFxv0Di5CS341wBC3GDb-25">
          <mxGeometry relative="1" as="geometry">
            <mxPoint x="860" y="480" as="targetPoint" />
          </mxGeometry>
        </mxCell>
        <mxCell id="QFxv0Di5CS341wBC3GDb-27" value="負責人點選&lt;span style=&quot;font-size:12.0pt;mso-bidi-font-size:11.0pt;&lt;br/&gt;font-family:&amp;quot;新細明體&amp;quot;,serif;mso-ascii-font-family:Calibri;mso-ascii-theme-font:&lt;br/&gt;minor-latin;mso-fareast-theme-font:minor-fareast;mso-hansi-font-family:Calibri;&lt;br/&gt;mso-hansi-theme-font:minor-latin;mso-bidi-font-family:&amp;quot;Times New Roman&amp;quot;;&lt;br/&gt;mso-bidi-theme-font:minor-bidi;mso-ansi-language:EN-US;mso-fareast-language:&lt;br/&gt;ZH-TW;mso-bidi-language:AR-SA&quot;&gt;【&lt;/span&gt;&lt;span style=&quot;background-color: initial;&quot;&gt;職安證照開課報名連結&lt;/span&gt;&lt;span style=&quot;font-size:12.0pt;mso-bidi-font-size:11.0pt;&lt;br/&gt;font-family:&amp;quot;新細明體&amp;quot;,serif;mso-ascii-font-family:Calibri;mso-ascii-theme-font:&lt;br/&gt;minor-latin;mso-fareast-theme-font:minor-fareast;mso-hansi-font-family:Calibri;&lt;br/&gt;mso-hansi-theme-font:minor-latin;mso-bidi-font-family:&amp;quot;Times New Roman&amp;quot;;&lt;br/&gt;mso-bidi-theme-font:minor-bidi;mso-ansi-language:EN-US;mso-fareast-language:&lt;br/&gt;ZH-TW;mso-bidi-language:AR-SA&quot;&gt;】&lt;/span&gt;" style="whiteSpace=wrap;html=1;rounded=1;glass=0;strokeWidth=1;shadow=0;" vertex="1" parent="WIyWlLk6GJQsqaUBKTNV-1">
          <mxGeometry x="745" y="400" width="230" height="40" as="geometry" />
        </mxCell>
        <mxCell id="QFxv0Di5CS341wBC3GDb-35" value="" style="edgeStyle=orthogonalEdgeStyle;rounded=0;orthogonalLoop=1;jettySize=auto;html=1;" edge="1" parent="WIyWlLk6GJQsqaUBKTNV-1" source="QFxv0Di5CS341wBC3GDb-31" target="QFxv0Di5CS341wBC3GDb-34">
          <mxGeometry relative="1" as="geometry" />
        </mxCell>
        <mxCell id="QFxv0Di5CS341wBC3GDb-31" value="進行報名流程" style="whiteSpace=wrap;html=1;rounded=1;glass=0;strokeWidth=1;shadow=0;" vertex="1" parent="WIyWlLk6GJQsqaUBKTNV-1">
          <mxGeometry x="525" y="565" width="230" height="40" as="geometry" />
        </mxCell>
        <mxCell id="QFxv0Di5CS341wBC3GDb-33" value="細節待定" style="text;html=1;align=center;verticalAlign=middle;resizable=0;points=[];autosize=1;strokeColor=#d6b656;fillColor=#fff2cc;" vertex="1" parent="WIyWlLk6GJQsqaUBKTNV-1">
          <mxGeometry x="770" y="570" width="70" height="30" as="geometry" />
        </mxCell>
        <mxCell id="QFxv0Di5CS341wBC3GDb-38" value="" style="edgeStyle=orthogonalEdgeStyle;rounded=0;orthogonalLoop=1;jettySize=auto;html=1;" edge="1" parent="WIyWlLk6GJQsqaUBKTNV-1" source="QFxv0Di5CS341wBC3GDb-34" target="QFxv0Di5CS341wBC3GDb-37">
          <mxGeometry relative="1" as="geometry" />
        </mxCell>
        <mxCell id="QFxv0Di5CS341wBC3GDb-40" value="" style="edgeStyle=orthogonalEdgeStyle;rounded=0;orthogonalLoop=1;jettySize=auto;html=1;dashed=1;endArrow=none;endFill=0;" edge="1" parent="WIyWlLk6GJQsqaUBKTNV-1" source="QFxv0Di5CS341wBC3GDb-34" target="QFxv0Di5CS341wBC3GDb-39">
          <mxGeometry relative="1" as="geometry" />
        </mxCell>
        <mxCell id="QFxv0Di5CS341wBC3GDb-34" value="點選&lt;span style=&quot;font-size: 12pt;&quot;&gt;【&lt;/span&gt;確認送簽&lt;span style=&quot;font-size: 12pt;&quot;&gt;】&lt;/span&gt;" style="whiteSpace=wrap;html=1;rounded=1;glass=0;strokeWidth=1;shadow=0;" vertex="1" parent="WIyWlLk6GJQsqaUBKTNV-1">
          <mxGeometry x="525" y="640" width="230" height="40" as="geometry" />
        </mxCell>
        <mxCell id="QFxv0Di5CS341wBC3GDb-36" value="送簽應是一梯次課程一次簽核，&lt;div&gt;還是一個課程一次簽核&lt;/div&gt;&lt;div&gt;P10是在梯次報名時直接送簽&lt;/div&gt;&lt;div&gt;P11簽核時卻顯示該課程&lt;/div&gt;" style="text;html=1;align=left;verticalAlign=middle;resizable=0;points=[];autosize=1;strokeColor=#d6b656;fillColor=#fff2cc;" vertex="1" parent="WIyWlLk6GJQsqaUBKTNV-1">
          <mxGeometry x="770" y="625" width="190" height="70" as="geometry" />
        </mxCell>
        <mxCell id="QFxv0Di5CS341wBC3GDb-42" value="" style="edgeStyle=orthogonalEdgeStyle;rounded=0;orthogonalLoop=1;jettySize=auto;html=1;" edge="1" parent="WIyWlLk6GJQsqaUBKTNV-1" source="QFxv0Di5CS341wBC3GDb-37" target="QFxv0Di5CS341wBC3GDb-41">
          <mxGeometry relative="1" as="geometry" />
        </mxCell>
        <mxCell id="QFxv0Di5CS341wBC3GDb-37" value="返回簽核畫面" style="whiteSpace=wrap;html=1;rounded=1;glass=0;strokeWidth=1;shadow=0;" vertex="1" parent="WIyWlLk6GJQsqaUBKTNV-1">
          <mxGeometry x="525" y="720" width="230" height="40" as="geometry" />
        </mxCell>
        <mxCell id="QFxv0Di5CS341wBC3GDb-39" value="&lt;div&gt;簽核流程：指定負責人→單位課長→單位處長→END&lt;/div&gt;&lt;div&gt;若是單位課長自行輸入，簽核流程從單位課長至單位處長。&lt;/div&gt;" style="whiteSpace=wrap;html=1;rounded=1;glass=0;strokeWidth=1;shadow=0;dashed=1;" vertex="1" parent="WIyWlLk6GJQsqaUBKTNV-1">
          <mxGeometry x="140" y="630" width="330" height="60" as="geometry" />
        </mxCell>
        <mxCell id="QFxv0Di5CS341wBC3GDb-44" style="edgeStyle=orthogonalEdgeStyle;rounded=0;orthogonalLoop=1;jettySize=auto;html=1;" edge="1" parent="WIyWlLk6GJQsqaUBKTNV-1" source="QFxv0Di5CS341wBC3GDb-41" target="QFxv0Di5CS341wBC3GDb-43">
          <mxGeometry relative="1" as="geometry" />
        </mxCell>
        <mxCell id="QFxv0Di5CS341wBC3GDb-41" value="點選核准" style="whiteSpace=wrap;html=1;rounded=1;glass=0;strokeWidth=1;shadow=0;" vertex="1" parent="WIyWlLk6GJQsqaUBKTNV-1">
          <mxGeometry x="525" y="800" width="230" height="40" as="geometry" />
        </mxCell>
        <mxCell id="QFxv0Di5CS341wBC3GDb-43" value="" style="ellipse;html=1;shape=endState;fillColor=strokeColor;" vertex="1" parent="WIyWlLk6GJQsqaUBKTNV-1">
          <mxGeometry x="625" y="880" width="30" height="30" as="geometry" />
        </mxCell>
        <mxCell id="QFxv0Di5CS341wBC3GDb-47" value="開課流程" style="text;html=1;align=center;verticalAlign=middle;whiteSpace=wrap;rounded=0;" vertex="1" parent="WIyWlLk6GJQsqaUBKTNV-1">
          <mxGeometry x="40" y="-20" width="90" height="30" as="geometry" />
        </mxCell>
        <mxCell id="QFxv0Di5CS341wBC3GDb-49" value="報名流程" style="text;html=1;align=center;verticalAlign=middle;whiteSpace=wrap;rounded=0;" vertex="1" parent="WIyWlLk6GJQsqaUBKTNV-1">
          <mxGeometry x="480" y="-20" width="90" height="30" as="geometry" />
        </mxCell>
        <mxCell id="QFxv0Di5CS341wBC3GDb-51" value="要存檔就送簽嗎" style="text;html=1;align=center;verticalAlign=middle;resizable=0;points=[];autosize=1;strokeColor=#d6b656;fillColor=#fff2cc;" vertex="1" parent="WIyWlLk6GJQsqaUBKTNV-1">
          <mxGeometry x="50" y="285" width="110" height="30" as="geometry" />
        </mxCell>
        <mxCell id="QFxv0Di5CS341wBC3GDb-52" value="新增/替換/刪除" style="text;html=1;align=center;verticalAlign=middle;resizable=0;points=[];autosize=1;strokeColor=none;fillColor=none;" vertex="1" parent="WIyWlLk6GJQsqaUBKTNV-1">
          <mxGeometry x="1130" y="-10" width="100" height="30" as="geometry" />
        </mxCell>
        <mxCell id="QFxv0Di5CS341wBC3GDb-58" value="" style="edgeStyle=orthogonalEdgeStyle;rounded=0;orthogonalLoop=1;jettySize=auto;html=1;" edge="1" parent="WIyWlLk6GJQsqaUBKTNV-1" source="QFxv0Di5CS341wBC3GDb-54" target="QFxv0Di5CS341wBC3GDb-57">
          <mxGeometry relative="1" as="geometry" />
        </mxCell>
        <mxCell id="QFxv0Di5CS341wBC3GDb-54" value="進入「職安證照開課報名」" style="rounded=1;whiteSpace=wrap;html=1;fontSize=12;glass=0;strokeWidth=1;shadow=0;" vertex="1" parent="WIyWlLk6GJQsqaUBKTNV-1">
          <mxGeometry x="1150" y="40" width="220" height="40" as="geometry" />
        </mxCell>
        <mxCell id="QFxv0Di5CS341wBC3GDb-55" value="指定負責人" style="shape=umlActor;verticalLabelPosition=bottom;verticalAlign=top;html=1;outlineConnect=0;" vertex="1" parent="WIyWlLk6GJQsqaUBKTNV-1">
          <mxGeometry x="1720" width="30" height="60" as="geometry" />
        </mxCell>
        <mxCell id="QFxv0Di5CS341wBC3GDb-56" value="課級以上人員" style="shape=umlActor;verticalLabelPosition=bottom;verticalAlign=top;html=1;outlineConnect=0;" vertex="1" parent="WIyWlLk6GJQsqaUBKTNV-1">
          <mxGeometry x="1830" width="30" height="60" as="geometry" />
        </mxCell>
        <mxCell id="QFxv0Di5CS341wBC3GDb-60" value="" style="edgeStyle=orthogonalEdgeStyle;rounded=0;orthogonalLoop=1;jettySize=auto;html=1;" edge="1" parent="WIyWlLk6GJQsqaUBKTNV-1" source="QFxv0Di5CS341wBC3GDb-57" target="QFxv0Di5CS341wBC3GDb-59">
          <mxGeometry relative="1" as="geometry" />
        </mxCell>
        <mxCell id="QFxv0Di5CS341wBC3GDb-57" value="按查詢" style="rounded=1;whiteSpace=wrap;html=1;fontSize=12;glass=0;strokeWidth=1;shadow=0;" vertex="1" parent="WIyWlLk6GJQsqaUBKTNV-1">
          <mxGeometry x="1150" y="120" width="220" height="40" as="geometry" />
        </mxCell>
        <mxCell id="QFxv0Di5CS341wBC3GDb-62" style="edgeStyle=orthogonalEdgeStyle;rounded=0;orthogonalLoop=1;jettySize=auto;html=1;entryX=0.5;entryY=0;entryDx=0;entryDy=0;" edge="1" parent="WIyWlLk6GJQsqaUBKTNV-1" source="QFxv0Di5CS341wBC3GDb-59" target="QFxv0Di5CS341wBC3GDb-61">
          <mxGeometry relative="1" as="geometry" />
        </mxCell>
        <mxCell id="QFxv0Di5CS341wBC3GDb-59" value="點選證照名稱" style="rounded=1;whiteSpace=wrap;html=1;fontSize=12;glass=0;strokeWidth=1;shadow=0;" vertex="1" parent="WIyWlLk6GJQsqaUBKTNV-1">
          <mxGeometry x="1150" y="200" width="220" height="40" as="geometry" />
        </mxCell>
        <mxCell id="QFxv0Di5CS341wBC3GDb-66" style="edgeStyle=orthogonalEdgeStyle;rounded=0;orthogonalLoop=1;jettySize=auto;html=1;entryX=0.5;entryY=0;entryDx=0;entryDy=0;" edge="1" parent="WIyWlLk6GJQsqaUBKTNV-1" source="QFxv0Di5CS341wBC3GDb-61" target="QFxv0Di5CS341wBC3GDb-65">
          <mxGeometry relative="1" as="geometry" />
        </mxCell>
        <mxCell id="QFxv0Di5CS341wBC3GDb-68" style="edgeStyle=orthogonalEdgeStyle;rounded=0;orthogonalLoop=1;jettySize=auto;html=1;entryX=0;entryY=0.5;entryDx=0;entryDy=0;" edge="1" parent="WIyWlLk6GJQsqaUBKTNV-1" source="QFxv0Di5CS341wBC3GDb-61">
          <mxGeometry relative="1" as="geometry">
            <mxPoint x="1360" y="320" as="targetPoint" />
          </mxGeometry>
        </mxCell>
        <mxCell id="QFxv0Di5CS341wBC3GDb-61" value="人員有無異常" style="rhombus;whiteSpace=wrap;html=1;shadow=0;fontFamily=Helvetica;fontSize=12;align=center;strokeWidth=1;spacing=6;spacingTop=-4;" vertex="1" parent="WIyWlLk6GJQsqaUBKTNV-1">
          <mxGeometry x="1210" y="280" width="100" height="80" as="geometry" />
        </mxCell>
        <mxCell id="QFxv0Di5CS341wBC3GDb-65" value="" style="ellipse;html=1;shape=endState;fillColor=strokeColor;" vertex="1" parent="WIyWlLk6GJQsqaUBKTNV-1">
          <mxGeometry x="1245" y="400" width="30" height="30" as="geometry" />
        </mxCell>
        <mxCell id="QFxv0Di5CS341wBC3GDb-67" value="no" style="text;html=1;align=center;verticalAlign=middle;resizable=0;points=[];autosize=1;strokeColor=none;fillColor=none;" vertex="1" parent="WIyWlLk6GJQsqaUBKTNV-1">
          <mxGeometry x="1210" y="358" width="40" height="30" as="geometry" />
        </mxCell>
        <mxCell id="QFxv0Di5CS341wBC3GDb-69" value="yes" style="text;html=1;align=center;verticalAlign=middle;resizable=0;points=[];autosize=1;strokeColor=none;fillColor=none;" vertex="1" parent="WIyWlLk6GJQsqaUBKTNV-1">
          <mxGeometry x="1310" y="288" width="40" height="30" as="geometry" />
        </mxCell>
        <mxCell id="QFxv0Di5CS341wBC3GDb-71" value="顯示人員名單" style="text;html=1;align=center;verticalAlign=middle;resizable=0;points=[];autosize=1;strokeColor=none;fillColor=none;" vertex="1" parent="WIyWlLk6GJQsqaUBKTNV-1">
          <mxGeometry x="1250" y="245" width="100" height="30" as="geometry" />
        </mxCell>
        <mxCell id="QFxv0Di5CS341wBC3GDb-72" value="顯示已開課之證照清單" style="text;html=1;align=center;verticalAlign=middle;resizable=0;points=[];autosize=1;strokeColor=none;fillColor=none;" vertex="1" parent="WIyWlLk6GJQsqaUBKTNV-1">
          <mxGeometry x="1254" y="163" width="140" height="30" as="geometry" />
        </mxCell>
        <mxCell id="QFxv0Di5CS341wBC3GDb-82" style="edgeStyle=orthogonalEdgeStyle;rounded=0;orthogonalLoop=1;jettySize=auto;html=1;entryX=0.5;entryY=0;entryDx=0;entryDy=0;" edge="1" parent="WIyWlLk6GJQsqaUBKTNV-1" source="QFxv0Di5CS341wBC3GDb-75" target="QFxv0Di5CS341wBC3GDb-76">
          <mxGeometry relative="1" as="geometry" />
        </mxCell>
        <mxCell id="QFxv0Di5CS341wBC3GDb-87" style="edgeStyle=orthogonalEdgeStyle;rounded=0;orthogonalLoop=1;jettySize=auto;html=1;entryX=0.5;entryY=0;entryDx=0;entryDy=0;" edge="1" parent="WIyWlLk6GJQsqaUBKTNV-1" source="QFxv0Di5CS341wBC3GDb-75" target="QFxv0Di5CS341wBC3GDb-84">
          <mxGeometry relative="1" as="geometry" />
        </mxCell>
        <mxCell id="QFxv0Di5CS341wBC3GDb-90" style="edgeStyle=orthogonalEdgeStyle;rounded=0;orthogonalLoop=1;jettySize=auto;html=1;entryX=0.5;entryY=0;entryDx=0;entryDy=0;" edge="1" parent="WIyWlLk6GJQsqaUBKTNV-1" source="QFxv0Di5CS341wBC3GDb-75" target="QFxv0Di5CS341wBC3GDb-89">
          <mxGeometry relative="1" as="geometry">
            <Array as="points">
              <mxPoint x="1410" y="260" />
              <mxPoint x="1765" y="260" />
            </Array>
          </mxGeometry>
        </mxCell>
        <mxCell id="QFxv0Di5CS341wBC3GDb-75" value="修改方式" style="rhombus;whiteSpace=wrap;html=1;shadow=0;fontFamily=Helvetica;fontSize=12;align=center;strokeWidth=1;spacing=6;spacingTop=-4;" vertex="1" parent="WIyWlLk6GJQsqaUBKTNV-1">
          <mxGeometry x="1360" y="280" width="100" height="80" as="geometry" />
        </mxCell>
        <mxCell id="QFxv0Di5CS341wBC3GDb-78" value="" style="edgeStyle=orthogonalEdgeStyle;rounded=0;orthogonalLoop=1;jettySize=auto;html=1;" edge="1" parent="WIyWlLk6GJQsqaUBKTNV-1" source="QFxv0Di5CS341wBC3GDb-76" target="QFxv0Di5CS341wBC3GDb-77">
          <mxGeometry relative="1" as="geometry" />
        </mxCell>
        <mxCell id="QFxv0Di5CS341wBC3GDb-76" value="修改員工編號" style="rounded=1;whiteSpace=wrap;html=1;fontSize=12;glass=0;strokeWidth=1;shadow=0;" vertex="1" parent="WIyWlLk6GJQsqaUBKTNV-1">
          <mxGeometry x="1335" y="400" width="150" height="40" as="geometry" />
        </mxCell>
        <mxCell id="QFxv0Di5CS341wBC3GDb-80" value="" style="edgeStyle=orthogonalEdgeStyle;rounded=0;orthogonalLoop=1;jettySize=auto;html=1;" edge="1" parent="WIyWlLk6GJQsqaUBKTNV-1" source="QFxv0Di5CS341wBC3GDb-77" target="QFxv0Di5CS341wBC3GDb-79">
          <mxGeometry relative="1" as="geometry" />
        </mxCell>
        <mxCell id="QFxv0Di5CS341wBC3GDb-77" value="點擊勾選框" style="rounded=1;whiteSpace=wrap;html=1;fontSize=12;glass=0;strokeWidth=1;shadow=0;" vertex="1" parent="WIyWlLk6GJQsqaUBKTNV-1">
          <mxGeometry x="1335" y="480" width="150" height="40" as="geometry" />
        </mxCell>
        <mxCell id="QFxv0Di5CS341wBC3GDb-81" style="edgeStyle=orthogonalEdgeStyle;rounded=0;orthogonalLoop=1;jettySize=auto;html=1;entryX=0;entryY=0.5;entryDx=0;entryDy=0;" edge="1" parent="WIyWlLk6GJQsqaUBKTNV-1" source="QFxv0Di5CS341wBC3GDb-79" target="QFxv0Di5CS341wBC3GDb-61">
          <mxGeometry relative="1" as="geometry">
            <Array as="points">
              <mxPoint x="1210" y="580" />
            </Array>
          </mxGeometry>
        </mxCell>
        <mxCell id="QFxv0Di5CS341wBC3GDb-79" value="點擊替換鈕" style="rounded=1;whiteSpace=wrap;html=1;fontSize=12;glass=0;strokeWidth=1;shadow=0;" vertex="1" parent="WIyWlLk6GJQsqaUBKTNV-1">
          <mxGeometry x="1335" y="560" width="150" height="40" as="geometry" />
        </mxCell>
        <mxCell id="QFxv0Di5CS341wBC3GDb-83" value="替換" style="text;html=1;align=center;verticalAlign=middle;resizable=0;points=[];autosize=1;strokeColor=none;fillColor=none;" vertex="1" parent="WIyWlLk6GJQsqaUBKTNV-1">
          <mxGeometry x="1402" y="368" width="50" height="30" as="geometry" />
        </mxCell>
        <mxCell id="QFxv0Di5CS341wBC3GDb-86" value="" style="edgeStyle=orthogonalEdgeStyle;rounded=0;orthogonalLoop=1;jettySize=auto;html=1;exitX=0.5;exitY=1;exitDx=0;exitDy=0;" edge="1" parent="WIyWlLk6GJQsqaUBKTNV-1" source="QFxv0Di5CS341wBC3GDb-84" target="QFxv0Di5CS341wBC3GDb-93">
          <mxGeometry relative="1" as="geometry">
            <mxPoint x="1595" y="400" as="targetPoint" />
          </mxGeometry>
        </mxCell>
        <mxCell id="QFxv0Di5CS341wBC3GDb-84" value="於下方空白欄位田入欲新增之員工編號" style="rounded=1;whiteSpace=wrap;html=1;fontSize=12;glass=0;strokeWidth=1;shadow=0;" vertex="1" parent="WIyWlLk6GJQsqaUBKTNV-1">
          <mxGeometry x="1520" y="400" width="150" height="40" as="geometry" />
        </mxCell>
        <mxCell id="QFxv0Di5CS341wBC3GDb-88" value="新增" style="text;html=1;align=center;verticalAlign=middle;resizable=0;points=[];autosize=1;strokeColor=none;fillColor=none;" vertex="1" parent="WIyWlLk6GJQsqaUBKTNV-1">
          <mxGeometry x="1475" y="318" width="50" height="30" as="geometry" />
        </mxCell>
        <mxCell id="QFxv0Di5CS341wBC3GDb-97" style="edgeStyle=orthogonalEdgeStyle;rounded=0;orthogonalLoop=1;jettySize=auto;html=1;" edge="1" parent="WIyWlLk6GJQsqaUBKTNV-1" source="QFxv0Di5CS341wBC3GDb-89" target="QFxv0Di5CS341wBC3GDb-96">
          <mxGeometry relative="1" as="geometry" />
        </mxCell>
        <mxCell id="QFxv0Di5CS341wBC3GDb-89" value="勾選欲刪除的員工的勾選框" style="rounded=1;whiteSpace=wrap;html=1;fontSize=12;glass=0;strokeWidth=1;shadow=0;" vertex="1" parent="WIyWlLk6GJQsqaUBKTNV-1">
          <mxGeometry x="1690" y="400" width="150" height="40" as="geometry" />
        </mxCell>
        <mxCell id="QFxv0Di5CS341wBC3GDb-91" value="刪除" style="text;html=1;align=center;verticalAlign=middle;resizable=0;points=[];autosize=1;strokeColor=none;fillColor=none;" vertex="1" parent="WIyWlLk6GJQsqaUBKTNV-1">
          <mxGeometry x="1410" y="230" width="50" height="30" as="geometry" />
        </mxCell>
        <mxCell id="QFxv0Di5CS341wBC3GDb-92" value="" style="edgeStyle=orthogonalEdgeStyle;rounded=0;orthogonalLoop=1;jettySize=auto;html=1;" edge="1" parent="WIyWlLk6GJQsqaUBKTNV-1" source="QFxv0Di5CS341wBC3GDb-93" target="QFxv0Di5CS341wBC3GDb-94">
          <mxGeometry relative="1" as="geometry" />
        </mxCell>
        <mxCell id="QFxv0Di5CS341wBC3GDb-93" value="點擊勾選框" style="rounded=1;whiteSpace=wrap;html=1;fontSize=12;glass=0;strokeWidth=1;shadow=0;" vertex="1" parent="WIyWlLk6GJQsqaUBKTNV-1">
          <mxGeometry x="1520" y="480" width="150" height="40" as="geometry" />
        </mxCell>
        <mxCell id="QFxv0Di5CS341wBC3GDb-95" style="edgeStyle=orthogonalEdgeStyle;rounded=0;orthogonalLoop=1;jettySize=auto;html=1;entryX=0;entryY=0.5;entryDx=0;entryDy=0;" edge="1" parent="WIyWlLk6GJQsqaUBKTNV-1" source="QFxv0Di5CS341wBC3GDb-94" target="QFxv0Di5CS341wBC3GDb-61">
          <mxGeometry relative="1" as="geometry">
            <Array as="points">
              <mxPoint x="1595" y="620" />
              <mxPoint x="1190" y="620" />
              <mxPoint x="1190" y="320" />
            </Array>
          </mxGeometry>
        </mxCell>
        <mxCell id="QFxv0Di5CS341wBC3GDb-94" value="點擊新增鈕" style="rounded=1;whiteSpace=wrap;html=1;fontSize=12;glass=0;strokeWidth=1;shadow=0;" vertex="1" parent="WIyWlLk6GJQsqaUBKTNV-1">
          <mxGeometry x="1520" y="560" width="150" height="40" as="geometry" />
        </mxCell>
        <mxCell id="QFxv0Di5CS341wBC3GDb-98" style="edgeStyle=orthogonalEdgeStyle;rounded=0;orthogonalLoop=1;jettySize=auto;html=1;entryX=0;entryY=0.5;entryDx=0;entryDy=0;" edge="1" parent="WIyWlLk6GJQsqaUBKTNV-1" source="QFxv0Di5CS341wBC3GDb-96" target="QFxv0Di5CS341wBC3GDb-61">
          <mxGeometry relative="1" as="geometry">
            <Array as="points">
              <mxPoint x="1765" y="640" />
              <mxPoint x="1170" y="640" />
              <mxPoint x="1170" y="300" />
              <mxPoint x="1210" y="300" />
            </Array>
          </mxGeometry>
        </mxCell>
        <mxCell id="QFxv0Di5CS341wBC3GDb-96" value="點擊刪除鈕" style="rounded=1;whiteSpace=wrap;html=1;fontSize=12;glass=0;strokeWidth=1;shadow=0;" vertex="1" parent="WIyWlLk6GJQsqaUBKTNV-1">
          <mxGeometry x="1690" y="560" width="150" height="40" as="geometry" />
        </mxCell>
        <mxCell id="QFxv0Di5CS341wBC3GDb-101" value="是否需記錄指定負責人？&lt;div&gt;這個負責人會換嗎？&lt;/div&gt;" style="text;html=1;align=center;verticalAlign=middle;resizable=0;points=[];autosize=1;strokeColor=#d6b656;fillColor=#fff2cc;" vertex="1" parent="WIyWlLk6GJQsqaUBKTNV-1">
          <mxGeometry x="1540" y="10" width="160" height="40" as="geometry" />
        </mxCell>
      </root>
    </mxGraphModel>
  </diagram>
</mxfile>
